<?xml version="1.0" encoding="UTF-8" standalone="no"?>
<!-- Created with Inkscape (http://www.inkscape.org/) -->

<svg
   width="210mm"
   height="297mm"
   viewBox="0 0 210 297"
   version="1.1"
   id="svg5"
   xmlns="http://www.w3.org/2000/svg"
   xmlns:svg="http://www.w3.org/2000/svg">
  <defs
     id="defs2" />
  <g
     id="layer1">
    <text
       xml:space="preserve"
       style="font-style:normal;font-variant:normal;font-weight:900;font-stretch:normal;font-size:35.2777px;font-family:Montserrat;-inkscape-font-specification:'Montserrat, Heavy';font-variant-ligatures:normal;font-variant-caps:normal;font-variant-numeric:normal;font-variant-east-asian:normal;fill:#ffffff;stroke-width:0.264583;fill-opacity:1"
       x="78.258835"
       y="42.939518"
       id="text167"><tspan
         id="tspan165"
         style="stroke-width:0.264583;fill:#ffffff;fill-opacity:1"
         x="78.258835"
         y="42.939518" /></text>
    <text
       xml:space="preserve"
       style="font-style:normal;font-variant:normal;font-weight:900;font-stretch:normal;font-size:35.2777px;font-family:Montserrat;-inkscape-font-specification:'Montserrat, Heavy';font-variant-ligatures:normal;font-variant-caps:normal;font-variant-numeric:normal;font-variant-east-asian:normal;fill:#ffffff;stroke-width:0.264583;fill-opacity:1"
       x="285.9537"
       y="78.886826"
       id="text171"><tspan
         id="tspan169"
         style="stroke-width:0.264583;fill:#ffffff;fill-opacity:1"
         x="285.9537"
         y="78.886826" /></text>
    <text
       xml:space="preserve"
       style="font-style:normal;font-variant:normal;font-weight:900;font-stretch:normal;font-size:35.2777px;font-family:Montserrat;-inkscape-font-specification:'Montserrat, Heavy';font-variant-ligatures:normal;font-variant-caps:normal;font-variant-numeric:normal;font-variant-east-asian:normal;fill:#ffffff;stroke-width:0.264583;fill-opacity:1"
       x="304.44318"
       y="78.868782"
       id="text175"><tspan
         id="tspan173"
         style="stroke-width:0.264583;fill:#ffffff;fill-opacity:1"
         x="304.44318"
         y="78.868782" /></text>
    <path
       d="M 56.314888,124.27664 V 71.110407 h 17.924614 v 53.166233 z m -34.482099,0 V 71.110407 H 39.757404 V 124.27664 Z M 38.542175,104.68107 V 89.946437 h 18.987941 v 14.734633 z"
       style="font-weight:900;font-size:35.2778px;font-family:Montserrat;-inkscape-font-specification:'Montserrat, Heavy';fill:#ffffff;fill-opacity:1;stroke-width:0.569637"
       id="path285" />
    <path
       d="m 124.06392,124.27664 23.24123,-53.166233 h 17.62081 l 23.24125,53.166233 H 169.63497 L 152.46988,79.616997 h 6.98756 l -17.1651,44.659643 z m 13.82322,-9.26613 4.5571,-12.91179 h 24.45647 l 4.5571,12.91179 z"
       style="font-weight:900;font-size:35.2778px;font-family:Montserrat;-inkscape-font-specification:'Montserrat, Heavy';fill:#ffffff;fill-opacity:1;stroke-width:0.569637"
       id="path289" />
    <g
       aria-label="HARDWARE TO APPLICATION"
       id="text294"
       style="font-weight:bold;font-size:17.6389px;font-family:Montserrat;-inkscape-font-specification:'Montserrat Bold';letter-spacing:5.29167px;fill:#ffffff;fill-opacity:1;stroke-width:0.264583"
       transform="matrix(0.42781846,0,0,0.42781846,-96.149421,42.621384)">
      <path
         d="m 284.24302,217.12761 v -12.34723 h 2.8575 v 12.34723 z m -8.46667,0 v -12.34723 h 2.8575 v 12.34723 z m 2.64583,-5.06237 v -2.41652 h 6.0325 v 2.41652 z"
         id="path296"
         style="fill:#ffffff;fill-opacity:1" />
      <path
         d="m 293.69748,217.12761 5.50333,-12.34723 h 2.82223 l 5.52097,12.34723 h -2.99861 l -4.51556,-10.90084 h 1.12889 l -4.53319,10.90084 z m 2.75167,-2.64584 0.75847,-2.16958 h 6.35 l 0.77611,2.16958 z"
         id="path298"
         style="fill:#ffffff;fill-opacity:1" />
      <path
         d="m 314.12334,217.12761 v -12.34723 h 5.27403 q 2.57528,0 4.00403,1.19944 1.42875,1.18181 1.42875,3.28084 0,1.37583 -0.65264,2.38125 -0.65264,0.98778 -1.85208,1.51695 -1.19945,0.52916 -2.8575,0.52916 h -3.75709 l 1.27,-1.25236 v 4.69195 z m 7.84931,0 -3.08681,-4.48028 h 3.05153 l 3.12209,4.48028 z m -4.99181,-4.37445 -1.27,-1.34055 h 3.59833 q 1.32292,0 1.97556,-0.56445 0.65264,-0.58208 0.65264,-1.5875 0,-1.02306 -0.65264,-1.5875 -0.65264,-0.56445 -1.97556,-0.56445 h -3.59833 l 1.27,-1.35819 z"
         id="path300"
         style="fill:#ffffff;fill-opacity:1" />
      <path
         d="m 332.37961,217.12761 v -12.34723 h 5.60917 q 2.01083,0 3.54542,0.77611 1.53458,0.75847 2.39889,2.13431 0.86431,1.37583 0.86431,3.26319 0,1.86973 -0.86431,3.2632 -0.86431,1.37583 -2.39889,2.15195 -1.53459,0.75847 -3.54542,0.75847 z m 2.8575,-2.34597 h 2.61056 q 1.23472,0 2.13431,-0.45862 0.91722,-0.47625 1.41111,-1.34055 0.51153,-0.86431 0.51153,-2.02848 0,-1.1818 -0.51153,-2.02847 -0.49389,-0.86431 -1.41111,-1.32292 -0.89959,-0.47625 -2.13431,-0.47625 h -2.61056 z"
         id="path302"
         style="fill:#ffffff;fill-opacity:1" />
      <path
         d="m 354.79864,217.12761 -4.03931,-12.34723 h 2.96334 l 3.51014,10.93612 h -1.48167 l 3.66889,-10.93612 h 2.64584 l 3.52778,10.93612 h -1.42875 l 3.59833,-10.93612 h 2.73403 l -4.03931,12.34723 h -3.06916 l -3.12209,-9.59556 h 0.81139 l -3.21028,9.59556 z"
         id="path304"
         style="fill:#ffffff;fill-opacity:1" />
      <path
         d="m 375.34796,217.12761 5.50334,-12.34723 h 2.82222 l 5.52098,12.34723 h -2.99861 l -4.51556,-10.90084 h 1.12889 l -4.5332,10.90084 z m 2.75167,-2.64584 0.75848,-2.16958 h 6.35 l 0.77611,2.16958 z"
         id="path306"
         style="fill:#ffffff;fill-opacity:1" />
      <path
         d="m 395.77382,217.12761 v -12.34723 h 5.27403 q 2.57528,0 4.00403,1.19944 1.42875,1.18181 1.42875,3.28084 0,1.37583 -0.65264,2.38125 -0.65264,0.98778 -1.85208,1.51695 -1.19945,0.52916 -2.8575,0.52916 h -3.75709 l 1.27,-1.25236 v 4.69195 z m 7.84931,0 -3.08681,-4.48028 h 3.05153 l 3.12209,4.48028 z m -4.99181,-4.37445 -1.27,-1.34055 h 3.59834 q 1.32291,0 1.97555,-0.56445 0.65264,-0.58208 0.65264,-1.5875 0,-1.02306 -0.65264,-1.5875 -0.65264,-0.56445 -1.97555,-0.56445 h -3.59834 l 1.27,-1.35819 z"
         id="path308"
         style="fill:#ffffff;fill-opacity:1" />
      <path
         d="m 414.0301,217.12761 v -12.34723 h 9.33098 v 2.29306 h -6.49112 v 7.76111 h 6.72042 v 2.29306 z m 2.6282,-5.15056 v -2.2225 h 5.94431 v 2.2225 z"
         id="path310"
         style="fill:#ffffff;fill-opacity:1" />
      <path
         d="m 443.9986,217.12761 v -10.0189 h -3.95112 v -2.32833 h 10.75973 v 2.32833 h -3.95111 v 10.0189 z"
         id="path312"
         style="fill:#ffffff;fill-opacity:1" />
      <path
         d="m 463.4543,217.33928 q -1.46403,0 -2.71639,-0.47625 -1.23473,-0.47625 -2.15195,-1.34056 -0.89958,-0.86431 -1.41111,-2.02847 -0.49389,-1.16417 -0.49389,-2.54001 0,-1.37583 0.49389,-2.54 0.51153,-1.16417 1.42875,-2.02847 0.91722,-0.86431 2.15195,-1.34056 1.23472,-0.47625 2.68111,-0.47625 1.46403,0 2.68111,0.47625 1.23472,0.47625 2.13431,1.34056 0.91722,0.8643 1.42875,2.02847 0.51153,1.14653 0.51153,2.54 0,1.37584 -0.51153,2.55764 -0.51153,1.16417 -1.42875,2.02848 -0.89959,0.84667 -2.13431,1.32292 -1.21708,0.47625 -2.66347,0.47625 z m -0.0176,-2.43417 q 0.82903,0 1.51694,-0.28222 0.70556,-0.28223 1.23473,-0.81139 0.52916,-0.52917 0.81139,-1.25237 0.29986,-0.72319 0.29986,-1.60514 0,-0.88194 -0.29986,-1.60514 -0.28223,-0.72319 -0.81139,-1.25236 -0.51153,-0.52916 -1.21709,-0.81139 -0.70555,-0.28222 -1.53458,-0.28222 -0.82903,0 -1.53459,0.28222 -0.68791,0.28223 -1.21708,0.81139 -0.52917,0.52917 -0.82903,1.25236 -0.28222,0.7232 -0.28222,1.60514 0,0.86431 0.28222,1.60514 0.29986,0.7232 0.81139,1.25237 0.52917,0.52916 1.23472,0.81139 0.70556,0.28222 1.53459,0.28222 z"
         id="path314"
         style="fill:#ffffff;fill-opacity:1" />
      <path
         d="m 486.29669,217.12761 5.50334,-12.34723 h 2.82223 l 5.52097,12.34723 h -2.99861 l -4.51556,-10.90084 h 1.12889 l -4.5332,10.90084 z m 2.75167,-2.64584 0.75848,-2.16958 h 6.35 l 0.77611,2.16958 z"
         id="path316"
         style="fill:#ffffff;fill-opacity:1" />
      <path
         d="m 506.72254,217.12761 v -12.34723 h 5.34459 q 1.65806,0 2.8575,0.5468 1.19945,0.52917 1.85209,1.53459 0.65264,1.00542 0.65264,2.39889 0,1.37583 -0.65264,2.38125 -0.65264,1.00542 -1.85209,1.55222 -1.19944,0.52917 -2.8575,0.52917 h -3.75709 l 1.27001,-1.28764 v 4.69195 z m 2.85751,-4.37445 -1.27001,-1.35819 h 3.59834 q 1.32292,0 1.97556,-0.56445 0.65264,-0.56444 0.65264,-1.56986 0,-1.02306 -0.65264,-1.5875 -0.65264,-0.56445 -1.97556,-0.56445 h -3.59834 l 1.27001,-1.35819 z"
         id="path318"
         style="fill:#ffffff;fill-opacity:1" />
      <path
         d="m 524.74951,217.12761 v -12.34723 h 5.34458 q 1.65806,0 2.8575,0.5468 1.19945,0.52917 1.85209,1.53459 0.65264,1.00542 0.65264,2.39889 0,1.37583 -0.65264,2.38125 -0.65264,1.00542 -1.85209,1.55222 -1.19944,0.52917 -2.8575,0.52917 h -3.75708 l 1.27,-1.28764 v 4.69195 z m 2.8575,-4.37445 -1.27,-1.35819 h 3.59833 q 1.32292,0 1.97556,-0.56445 0.65264,-0.56444 0.65264,-1.56986 0,-1.02306 -0.65264,-1.5875 -0.65264,-0.56445 -1.97556,-0.56445 h -3.59833 l 1.27,-1.35819 z"
         id="path320"
         style="fill:#ffffff;fill-opacity:1" />
      <path
         d="m 542.77647,217.12761 v -12.34723 h 2.8575 v 10.01889 h 6.19125 v 2.32834 z"
         id="path322"
         style="fill:#ffffff;fill-opacity:1" />
      <path
         d="m 558.72202,217.12761 v -12.34723 h 2.85751 v 12.34723 z"
         id="path324"
         style="fill:#ffffff;fill-opacity:1" />
      <path
         d="m 575.70827,217.33928 q -1.42876,0 -2.66348,-0.45862 -1.21708,-0.47625 -2.11667,-1.34055 -0.89958,-0.86431 -1.41111,-2.02848 -0.49389,-1.16416 -0.49389,-2.55764 0,-1.39347 0.49389,-2.55764 0.51153,-1.16416 1.41111,-2.02847 0.91723,-0.86431 2.13431,-1.32292 1.21708,-0.47625 2.66347,-0.47625 1.60514,0 2.89278,0.56445 1.30528,0.5468 2.18723,1.62278 l -1.83445,1.69333 q -0.635,-0.72319 -1.41111,-1.07597 -0.77611,-0.37042 -1.69333,-0.37042 -0.86431,0 -1.58751,0.28222 -0.72319,0.28223 -1.25236,0.81139 -0.52916,0.52917 -0.82903,1.25236 -0.28222,0.7232 -0.28222,1.60514 0,0.88195 0.28222,1.60514 0.29987,0.7232 0.82903,1.25237 0.52917,0.52916 1.25236,0.81139 0.7232,0.28222 1.58751,0.28222 0.91722,0 1.69333,-0.35278 0.77611,-0.37042 1.41111,-1.11125 l 1.83445,1.69333 q -0.88195,1.07598 -2.18723,1.64042 -1.28764,0.56445 -2.91041,0.56445 z"
         id="path326"
         style="fill:#ffffff;fill-opacity:1" />
      <path
         d="m 585.99176,217.12761 5.50334,-12.34723 h 2.82222 l 5.52098,12.34723 h -2.99861 l -4.51556,-10.90084 h 1.12889 l -4.5332,10.90084 z m 2.75167,-2.64584 0.75847,-2.16958 h 6.35001 l 0.77611,2.16958 z"
         id="path328"
         style="fill:#ffffff;fill-opacity:1" />
      <path
         d="m 608.35791,217.12761 v -10.0189 h -3.95111 v -2.32833 h 10.75973 v 2.32833 h -3.95112 v 10.0189 z"
         id="path330"
         style="fill:#ffffff;fill-opacity:1" />
      <path
         d="m 621.99278,217.12761 v -12.34723 h 2.8575 v 12.34723 z"
         id="path332"
         style="fill:#ffffff;fill-opacity:1" />
      <path
         d="m 639.06721,217.33928 q -1.46403,0 -2.71639,-0.47625 -1.23472,-0.47625 -2.15194,-1.34056 -0.89959,-0.86431 -1.41112,-2.02847 -0.49389,-1.16417 -0.49389,-2.54001 0,-1.37583 0.49389,-2.54 0.51153,-1.16417 1.42875,-2.02847 0.91723,-0.86431 2.15195,-1.34056 1.23472,-0.47625 2.68111,-0.47625 1.46403,0 2.68112,0.47625 1.23472,0.47625 2.1343,1.34056 0.91723,0.8643 1.42875,2.02847 0.51153,1.14653 0.51153,2.54 0,1.37584 -0.51153,2.55764 -0.51152,1.16417 -1.42875,2.02848 -0.89958,0.84667 -2.1343,1.32292 -1.21709,0.47625 -2.66348,0.47625 z m -0.0176,-2.43417 q 0.82903,0 1.51695,-0.28222 0.70555,-0.28223 1.23472,-0.81139 0.52917,-0.52917 0.81139,-1.25237 0.29986,-0.72319 0.29986,-1.60514 0,-0.88194 -0.29986,-1.60514 -0.28222,-0.72319 -0.81139,-1.25236 -0.51153,-0.52916 -1.21708,-0.81139 -0.70556,-0.28222 -1.53459,-0.28222 -0.82903,0 -1.53458,0.28222 -0.68792,0.28223 -1.21709,0.81139 -0.52916,0.52917 -0.82902,1.25236 -0.28223,0.7232 -0.28223,1.60514 0,0.86431 0.28223,1.60514 0.29986,0.7232 0.81139,1.25237 0.52916,0.52916 1.23472,0.81139 0.70555,0.28222 1.53458,0.28222 z"
         id="path334"
         style="fill:#ffffff;fill-opacity:1" />
      <path
         d="m 653.24891,217.12761 v -12.34723 h 2.36361 l 7.28487,8.89 h -1.14653 v -8.89 h 2.82222 v 12.34723 h -2.34597 l -7.3025,-8.89001 h 1.14652 v 8.89001 z"
         id="path336"
         style="fill:#ffffff;fill-opacity:1" />
    </g>
    <path
       style="fill:#ffffff;fill-opacity:1;stroke-width:0.684332"
       d="m 79.648256,119.12157 v -5.08242 l 9.75173,-8.96205 C 100.66458,94.724676 102.91554,92.041316 102.91554,88.965226 c 0,-3.03808 -1.80302,-4.45248 -5.675814,-4.45248 -2.58722,0 -3.62881,0.40031 -5.64293,2.16873 l -2.47005,2.16874 -6.10791,-2.99384 c -3.35935,-1.646616 -6.10791,-3.251637 -6.10791,-3.566718 0,-1.611241 6.57527,-7.361227 10.4468,-9.135592 3.77648,-1.730803 5.05207,-1.957056 11.10965,-1.970548 7.884384,-0.01757 12.283884,1.19865 16.294424,4.504481 3.70655,3.05525 5.26203,6.526427 5.26203,11.742617 0,6.46954 -2.09641,10.1034 -10.15384,17.600424 l -6.61229,6.15238 9.0674,0.009 9.0674,0.009 v 6.50115 6.50115 H 100.52038 79.648256 Z"
       id="path677" />
  </g>
</svg>
